<svg xmlns="http://www.w3.org/2000/svg" width="720" height="686" font-family="system-ui,-apple-system,sans-serif">
<rect width="100%" height="100%" fill="#fff"/>
<g transform="translate(0,0)">
<rect width="100%" height="100%" fill="#fff"></rect><text x="360" y="24" text-anchor="middle" font-size="14" font-weight="bold">Performance — round-trip (lower is better)</text><g transform="translate(160,40)"><g transform="translate(0,0)"><text x="-12" y="27" text-anchor="end" dominant-baseline="middle" font-size="11" fill="#374151">simple_struct</text><rect x="0" y="1" width="236.5209565714285" height="16" fill="#2563eb" rx="3"></rect><text x="242.5209565714285" y="10" dominant-baseline="middle" font-size="10" fill="#6b7280">376 ns</text><rect x="0" y="19" width="306.15409942857144" height="16" fill="#dc2626" rx="3"></rect><text x="312.15409942857144" y="28" dominant-baseline="middle" font-size="10" fill="#6b7280">487 ns</text><rect x="0" y="37" width="422.1579999999999" height="16" fill="#16a34a" rx="3"></rect><text x="428.1579999999999" y="46" dominant-baseline="middle" font-size="10" fill="#6b7280">672 ns</text></g><g transform="translate(0,70)"><text x="-12" y="27" text-anchor="end" dominant-baseline="middle" font-size="11" fill="#374151">simple_enum</text><rect x="0" y="1" width="189.031788" height="16" fill="#2563eb" rx="3"></rect><text x="195.031788" y="10" dominant-baseline="middle" font-size="10" fill="#6b7280">344 ns</text><rect x="0" y="19" width="391.05275000000006" height="16" fill="#dc2626" rx="3"></rect><text x="397.05275000000006" y="28" dominant-baseline="middle" font-size="10" fill="#6b7280">711 ns</text><rect x="0" y="37" width="432.4411629999998" height="16" fill="#16a34a" rx="3"></rect><text x="438.4411629999998" y="46" dominant-baseline="middle" font-size="10" fill="#6b7280">786 ns</text></g><g transform="translate(0,140)"><text x="-12" y="27" text-anchor="end" dominant-baseline="middle" font-size="11" fill="#374151">complex</text><rect x="0" y="1" width="296.1858167714286" height="16" fill="#2563eb" rx="3"></rect><text x="302.1858167714286" y="10" dominant-baseline="middle" font-size="10" fill="#6b7280">18.8 µs</text><rect x="0" y="19" width="421.17679999999996" height="16" fill="#dc2626" rx="3"></rect><text x="427.17679999999996" y="28" dominant-baseline="middle" font-size="10" fill="#6b7280">26.8 µs</text><rect x="0" y="37" width="360.2349142857143" height="16" fill="#16a34a" rx="3"></rect><text x="366.2349142857143" y="46" dominant-baseline="middle" font-size="10" fill="#6b7280">22.9 µs</text></g><g transform="translate(0,210)"><text x="-12" y="27" text-anchor="end" dominant-baseline="middle" font-size="11" fill="#374151">vec_256_complex</text><rect x="0" y="1" width="298.81655571428576" height="16" fill="#2563eb" rx="3"></rect><text x="304.81655571428576" y="10" dominant-baseline="middle" font-size="10" fill="#6b7280">4.8 ms</text><rect x="0" y="19" width="426.97460670857146" height="16" fill="#dc2626" rx="3"></rect><text x="432.97460670857146" y="28" dominant-baseline="middle" font-size="10" fill="#6b7280">6.8 ms</text><rect x="0" y="37" width="355.44419428571416" height="16" fill="#16a34a" rx="3"></rect><text x="361.44419428571416" y="46" dominant-baseline="middle" font-size="10" fill="#6b7280">5.7 ms</text></g></g><g transform="translate(160, 334)"><rect x="0" y="0" width="12" height="12" fill="#2563eb" rx="2"></rect><text x="16" y="10" font-size="11">typewire</text><rect x="82" y="0" width="12" height="12" fill="#dc2626" rx="2"></rect><text x="98" y="10" font-size="11">serde-wasm-bindgen</text><rect x="229" y="0" width="12" height="12" fill="#16a34a" rx="2"></rect><text x="245" y="10" font-size="11">serde_json</text></g></g>
<g transform="translate(0,378)">
<rect width="100%" height="100%" fill="#fff"></rect><text x="360" y="24" text-anchor="middle" font-size="14" font-weight="bold">Bundle Size (after wasm-bindgen + wasm-opt -Oz)</text><g transform="translate(120,40)"><g transform="translate(0,218)" fill="none" font-size="10" font-family="sans-serif" text-anchor="middle"><path class="domain" stroke="currentColor" d="M0.5,6V0.5H480.5V6"></path><g class="tick" opacity="1" transform="translate(0.5,0)"><line stroke="currentColor" y2="6"></line><text fill="currentColor" y="9" dy="0.71em" font-size="10">0 B</text></g><g class="tick" opacity="1" transform="translate(60.5,0)"><line stroke="currentColor" y2="6"></line><text fill="currentColor" y="9" dy="0.71em" font-size="10">19.5 KB</text></g><g class="tick" opacity="1" transform="translate(120.5,0)"><line stroke="currentColor" y2="6"></line><text fill="currentColor" y="9" dy="0.71em" font-size="10">39.1 KB</text></g><g class="tick" opacity="1" transform="translate(180.5,0)"><line stroke="currentColor" y2="6"></line><text fill="currentColor" y="9" dy="0.71em" font-size="10">58.6 KB</text></g><g class="tick" opacity="1" transform="translate(240.5,0)"><line stroke="currentColor" y2="6"></line><text fill="currentColor" y="9" dy="0.71em" font-size="10">78.1 KB</text></g><g class="tick" opacity="1" transform="translate(300.5,0)"><line stroke="currentColor" y2="6"></line><text fill="currentColor" y="9" dy="0.71em" font-size="10">97.7 KB</text></g><g class="tick" opacity="1" transform="translate(360.5,0)"><line stroke="currentColor" y2="6"></line><text fill="currentColor" y="9" dy="0.71em" font-size="10">117.2 KB</text></g><g class="tick" opacity="1" transform="translate(420.5,0)"><line stroke="currentColor" y2="6"></line><text fill="currentColor" y="9" dy="0.71em" font-size="10">136.7 KB</text></g><g class="tick" opacity="1" transform="translate(480.5,0)"><line stroke="currentColor" y2="6"></line><text fill="currentColor" y="9" dy="0.71em" font-size="10">156.3 KB</text></g></g><g><line x1="0" x2="0" y1="0" y2="218" stroke="#e5e7eb" stroke-dasharray="3,3"></line><line x1="60" x2="60" y1="0" y2="218" stroke="#e5e7eb" stroke-dasharray="3,3"></line><line x1="120" x2="120" y1="0" y2="218" stroke="#e5e7eb" stroke-dasharray="3,3"></line><line x1="180" x2="180" y1="0" y2="218" stroke="#e5e7eb" stroke-dasharray="3,3"></line><line x1="240" x2="240" y1="0" y2="218" stroke="#e5e7eb" stroke-dasharray="3,3"></line><line x1="300" x2="300" y1="0" y2="218" stroke="#e5e7eb" stroke-dasharray="3,3"></line><line x1="360" x2="360" y1="0" y2="218" stroke="#e5e7eb" stroke-dasharray="3,3"></line><line x1="420" x2="420" y1="0" y2="218" stroke="#e5e7eb" stroke-dasharray="3,3"></line><line x1="480" x2="480" y1="0" y2="218" stroke="#e5e7eb" stroke-dasharray="3,3"></line></g><g transform="translate(0,0)"><text x="-12" y="22" text-anchor="end" dominant-baseline="middle" font-size="11" fill="#374151">baseline</text><rect x="0" y="1" width="39.903" height="20" fill="#94a3b8" opacity="1" rx="3"></rect><text x="45.903" y="12" dominant-baseline="middle" font-size="10" fill="#6b7280">13.0 KB (raw)</text><rect x="0" y="23" width="18.285" height="20" fill="#94a3b8" opacity="0.55" rx="3"></rect><text x="24.285" y="34" dominant-baseline="middle" font-size="10" fill="#6b7280">6.0 KB (gzip)</text></g><g transform="translate(0,58)"><text x="-12" y="22" text-anchor="end" dominant-baseline="middle" font-size="11" fill="#374151">typewire</text><rect x="0" y="1" width="80.922" height="20" fill="#2563eb" opacity="1" rx="3"></rect><text x="86.922" y="12" dominant-baseline="middle" font-size="10" fill="#6b7280">26.3 KB (raw)</text><rect x="0" y="23" width="34.257" height="20" fill="#2563eb" opacity="0.55" rx="3"></rect><text x="40.257" y="34" dominant-baseline="middle" font-size="10" fill="#6b7280">11.2 KB (gzip)</text></g><g transform="translate(0,116)"><text x="-12" y="22" text-anchor="end" dominant-baseline="middle" font-size="11" fill="#374151">serde-wasm-bindgen</text><rect x="0" y="1" width="318.399" height="20" fill="#dc2626" opacity="1" rx="3"></rect><text x="324.399" y="12" dominant-baseline="middle" font-size="10" fill="#6b7280">103.6 KB (raw)</text><rect x="0" y="23" width="133.797" height="20" fill="#dc2626" opacity="0.55" rx="3"></rect><text x="139.797" y="34" dominant-baseline="middle" font-size="10" fill="#6b7280">43.6 KB (gzip)</text></g><g transform="translate(0,174)"><text x="-12" y="22" text-anchor="end" dominant-baseline="middle" font-size="11" fill="#374151">serde_json</text><rect x="0" y="1" width="450.423" height="20" fill="#16a34a" opacity="1" rx="3"></rect><text x="456.423" y="12" dominant-baseline="middle" font-size="10" fill="#6b7280">146.6 KB (raw)</text><rect x="0" y="23" width="198.74099999999999" height="20" fill="#16a34a" opacity="0.55" rx="3"></rect><text x="204.74099999999999" y="34" dominant-baseline="middle" font-size="10" fill="#6b7280">64.7 KB (gzip)</text></g></g><g transform="translate(120, 288)"><rect x="0" y="0" width="12" height="12" fill="#94a3b8" rx="2"></rect><text x="16" y="10" font-size="11">baseline</text><rect x="82" y="0" width="12" height="12" fill="#2563eb" rx="2"></rect><text x="98" y="10" font-size="11">typewire</text><rect x="164" y="0" width="12" height="12" fill="#dc2626" rx="2"></rect><text x="180" y="10" font-size="11">serde-wasm-bindgen</text><rect x="311" y="0" width="12" height="12" fill="#16a34a" rx="2"></rect><text x="327" y="10" font-size="11">serde_json</text></g></g>
</svg>
